<?xml version="1.0" encoding="utf-8"?>
<!-- Generator: Adobe Illustrator 28.3.0, SVG Export Plug-In . SVG Version: 6.00 Build 0)  -->
<svg version="1.1" id="Layer_1" xmlns="http://www.w3.org/2000/svg" xmlns:xlink="http://www.w3.org/1999/xlink" x="0px" y="0px"
	 viewBox="0 0 600 600" style="enable-background:new 0 0 600 600;" xml:space="preserve">
<style type="text/css">
	.st0{display:none;}
	.st1{display:inline;fill:#B2B2B0;}
	.st2{display:inline;fill:#878B92;}
	.st3{fill:#050505;}
	.st4{fill:#2D5C6E;}
	.st5{fill:#091520;}
	.st6{fill:#072534;}
	.st7{fill:#FAF3D6;}
	.st8{fill:#F6CF55;}
	.st9{fill:url(#SVGID_1_);}
	.st10{fill:url(#SVGID_00000109003529314226367890000016671438958698934939_);}
</style>
<g>
	<g id="Background_00000034055018155792776380000009146306376527100552_" class="st0">
		<path class="st1" d="M750.59-127.59c0,427.59,0,427.59,0,855.19c-427.59,0-427.59,0-855.19,0c0-427.59,0-427.59,0-855.19
			C323-127.59,323-127.59,750.59-127.59z"/>
		<path class="st2" d="M299.2,550.54c61.71-2.08,123.16,5.27,184.57,10.02c0.63,1.46,0.63,1.46,1.25,2.92
			c-81.16,19.81-213.08,19.6-294.39,5.43c-6.37-1.11-22.76-3.38-19.21-7.52C211.97,557.55,258.89,551.9,299.2,550.54z"/>
	</g>
	<g>
		<path class="st3" d="M150.96,412.74c73.94,97.78,229.41,102.39,306.5,5.85c17.8-22.29,31.97-51,36.75-79.34
			c19.21,0,19.21,0,38.42,0c-10.79,78.78-64.11,144.35-137.8,173.71c-19.51,7.77-51.35,14.66-72.24,15.87
			c-120.9,7-227.17-74.15-245.95-194.59c17.75-1.25,17.75-1.25,35.49-2.51c2.56-1.8-3.94-22.87-0.42-26.72
			C113.55,345.03,126.91,380.93,150.96,412.74z"/>
		<path class="st4" d="M375.61,71.17c82.73,31.8,148.19,110.84,157.84,199.6c-19.63,0.42-19.63,0.42-39.25,0.84
			c-22.93-165.9-228.42-237.31-341.57-98.55c-25.47,5.85-25.47,5.85-50.94,11.69c19.54-34.54,46.32-70.14,80.59-91.87
			C235.72,59.01,316.49,48.44,375.61,71.17z"/>
		<path class="st5" d="M152.63,173.06c-14.27,17.5-30.71,49.11-35.91,70.99c-2.6,10.94-4.38,23.03-5.01,34.24
			c-0.41,7.23-0.34,19.37,0,26.72c-3.52,3.86,2.98,24.93,0.42,26.72c-17.75,1.25-17.75,1.25-35.49,2.51
			c-8.25-52.9-1.22-103.04,25.05-149.49C127.16,178.9,127.16,178.9,152.63,173.06z"/>
		<path class="st6" d="M532.62,339.25c-19.21,0-19.21,0-38.42,0c3.78-22.44,3.1-45.24,0-67.65c19.63-0.42,19.63-0.42,39.25-0.84
			C535.95,293.67,535.74,316.47,532.62,339.25z"/>
		<g>
			<path class="st7" d="M494.2,271.61c3.1,22.41,3.78,45.21,0,67.65c-4.77,28.34-18.95,57.05-36.75,79.34c-28.81,0-28.81,0-57.62,0
				c0.02-2.98-15.93-48.14-18.37-56.79c0.43-0.12,1.6-0.77,1.67-0.84c1.86,6.9,15.65,54.13,17.96,55.95
				c2.16,1.71,52.49,1.66,55.12,0.84c5.81-1.83,26.95-44.62,29.65-52.2c12.43-34.98,11.76-88.55,0-123.6
				c-0.55-0.88-2.04-0.15-2.51-0.42c-5.72-3.26-14.16-1.03-20.88-1.67c-0.19-11.56-11.57-14.97-20.88-15.87
				c-14.89-1.43-93.73,2.17-98.13,0c-5.04-2.49-25.52-98.71-32.99-107.32c-12.3-14.17-32.92-3.53-39.25,10.86
				c-5.08,11.55-27.12,93.61-31.32,96.46c-3.86,2.61-80.78,0.14-93.12,0.84c-12.88,0.72-23.52,3.9-21.71,20.04
				c-4.18-0.42-4.18-0.42-8.35-0.84c5.2-21.88,21.64-53.49,35.91-70.99C265.78,34.29,471.27,105.7,494.2,271.61z"/>
			<path class="st8" d="M399.83,418.59c28.81,0,28.81,0,57.62,0c-77.09,96.54-232.55,91.93-306.5-5.85
				c10.86-0.42,10.86-0.42,21.71-0.84c-0.99,15.96,13.3,27.58,28.81,25.89c16.54-1.8,77.94-48.95,84.35-48.44
				c4.69,0.37,69.2,45.11,81.01,47.6C386.65,441.14,399.77,428.65,399.83,418.59z"/>
			<path class="st7" d="M155.14,277.45c5.49,5.21,43.59,38.39,44.26,41.34c0.45,1.98-4.16,14.59-5.01,17.96
				c-4.16,16.57-21.47,71.26-21.71,75.16c-10.86,0.42-10.86,0.42-21.71,0.84c-24.05-31.81-37.41-67.71-39.25-107.73
				c-0.34-7.36-0.41-19.49,0-26.72C133.42,277.87,133.42,277.87,155.14,277.45z"/>
			<path class="st8" d="M125.07,244.88c1,8.94,22.52,25.41,30.07,32.57c-21.71,0.42-21.71,0.42-43.43,0.84
				c0.63-11.21,2.41-23.31,5.01-34.24C120.9,244.46,120.9,244.46,125.07,244.88z"/>
			<path class="st7" d="M383.13,360.97c27.11-26.9,104.11-84.99,100.22-119.43c0.46,0.26,1.96-0.46,2.51,0.42
				c11.76,35.05,12.43,88.62,0,123.6c-2.69,7.58-23.84,50.36-29.65,52.2c-2.63,0.83-52.96,0.87-55.12-0.84
				C398.78,415.1,384.99,367.86,383.13,360.97z"/>
			<path class="st8" d="M483.35,241.54c3.89,34.43-73.11,92.52-100.22,119.43c-0.07,0.07-1.24,0.71-1.67,0.84
				c-2.24-7.93-7.33-25.57-8.35-31.74c-0.19-1.15-1.8-4.83-1.67-5.43c1.23-5.7,83.27-67.18,88.53-76c0.92-1.54,2.53-7.23,2.51-8.77
				C469.19,240.51,477.63,238.28,483.35,241.54z"/>
			<path class="st7" d="M366.43,267.43c-0.39,0.95,0.39,3.9,0,4.59c-1.85,3.28-41.06,34.83-41.76,37.58
				c-1.13,4.45,11.09,34.98,13.36,41.34c2.53,7.06,4.28,17.83,7.52,24.22c-0.21,1.67-0.21,1.67-0.42,3.34
				c-9.12-3.73-56.09-36.29-60.13-35.91c-3.63,0.34-56.22,36.03-63.05,35.08c2.11-9.13,24.98-66.92,24.22-70.57
				c-0.57-2.71-35.59-32.66-37.58-40.5c2.68,0.26,51.35,0.12,53.87-0.84c3.07-1.17,22.55-53.32,28.39-59.3
				c4.95,6.16,22.06,58.12,25.05,59.3c2.89,1.14,46.78-1.16,50.11,0C366.65,265.98,366.43,266.85,366.43,267.43z"/>
			<g>
				<linearGradient id="SVGID_1_" gradientUnits="userSpaceOnUse" x1="300.5204" y1="118.5396" x2="291.9282" y2="261.0902">
					<stop  offset="0" style="stop-color:#396C7D"/>
					<stop  offset="1" style="stop-color:#265366"/>
				</linearGradient>
				<path class="st9" d="M441.59,224c-0.04,0.89,0.29,1.72-0.42,2.51c-2.36,2.65-41.52,31.76-45.1,33.41
					c-16.84,7.74-27.56,2.42-29.65,7.52c0-0.58,0.22-1.45-0.42-1.67c-3.33-1.16-47.21,1.14-50.11,0c-3-1.18-20.1-53.13-25.05-59.3
					c-5.84,5.98-25.32,58.12-28.39,59.3c-2.52,0.96-51.19,1.09-53.87,0.84c-9.94-0.95-32.84-14.55-41.34-20.88
					c-3.6-2.68-23.11-19.25-20.46-20.88c12.34-0.69,89.26,1.78,93.12-0.84c4.2-2.84,26.23-84.91,31.32-96.46
					c6.33-14.39,26.95-25.03,39.25-10.86c7.46,8.6,27.94,104.83,32.99,107.32C347.86,226.17,426.7,222.57,441.59,224z"/>
				<path class="st3" d="M381.46,361.8c2.45,8.65,18.39,53.81,18.37,56.79c-0.06,10.06-13.18,22.55-32.99,18.37
					c-11.81-2.49-76.32-47.23-81.01-47.6c-6.41-0.51-67.81,46.64-84.35,48.44c-15.51,1.69-29.8-9.93-28.81-25.89
					c0.24-3.9,17.55-58.59,21.71-75.16c2.32,2.94-4.42,17.39-4.18,18.79c0.33,1.91,29.82,21.86,31.74,22.13
					c6.83,0.96,59.42-34.74,63.05-35.08c4.04-0.37,51.01,32.18,60.13,35.91c0.21-1.67,0.21-1.67,0.42-3.34
					c6.99,13.77,28.75,13.17,40.92,5.43c-7.34-14.22-8.83-32.51-14.2-47.19c0.42-1.67,0.42-1.67,0.84-3.34
					C374.13,336.23,379.22,353.87,381.46,361.8z"/>
				
					<linearGradient id="SVGID_00000138546643114008535080000009780253492553158576_" gradientUnits="userSpaceOnUse" x1="190.5703" y1="242.3617" x2="172.4702" y2="354.4894">
					<stop  offset="0" style="stop-color:#082532"/>
					<stop  offset="1" style="stop-color:#0A121B"/>
				</linearGradient>
				<path style="fill:url(#SVGID_00000138546643114008535080000009780253492553158576_);" d="M146.79,224.84
					c-2.65,1.63,16.86,18.2,20.46,20.88c8.5,6.33,31.4,19.93,41.34,20.88c1.99,7.84,37.01,37.8,37.58,40.5
					c0.76,3.65-22.11,61.44-24.22,70.57c-1.92-0.27-31.4-20.23-31.74-22.13c-0.24-1.4,6.49-15.85,4.18-18.79
					c0.85-3.37,5.46-15.98,5.01-17.96c-0.67-2.95-38.77-36.13-44.26-41.34c-7.55-7.16-29.07-23.63-30.07-32.57
					C123.27,228.74,133.9,225.56,146.79,224.84z"/>
				<path class="st6" d="M462.47,239.87c0.02,1.54-1.59,7.23-2.51,8.77c-5.26,8.82-87.29,70.29-88.53,76
					c-0.13,0.6,1.48,4.28,1.67,5.43c-0.42,1.67-0.42,1.67-0.84,3.34c-0.43-1.18-2.04-6.5-2.92-6.68
					c-15.66,12.11-15.66,12.11-31.32,24.22c-2.28-6.36-14.49-36.89-13.36-41.34c0.7-2.75,39.91-34.3,41.76-37.58
					c0.39-0.69-0.39-3.64,0-4.59c2.09-5.1,12.81,0.22,29.65-7.52c3.58-1.64,42.73-30.76,45.1-33.41c0.7-0.79,0.38-1.61,0.42-2.51
					C450.9,224.9,462.28,228.3,462.47,239.87z"/>
				<path class="st5" d="M372.27,333.41c5.36,14.67,6.86,32.97,14.2,47.19c-12.17,7.74-33.93,8.34-40.92-5.43
					c-3.24-6.38-4.99-17.15-7.52-24.22c15.66-12.11,15.66-12.11,31.32-24.22C370.23,326.91,371.84,332.22,372.27,333.41z"/>
			</g>
		</g>
	</g>
</g>
</svg>
